<svg width="107" height="27" viewBox="0 0 107 27" fill="none" xmlns="http://www.w3.org/2000/svg">
<path d="M37.036 7.364V15.968C37.036 17.3 36.658 18.326 35.902 19.046C35.158 19.766 34.15 20.126 32.878 20.126C31.546 20.126 30.478 19.748 29.674 18.992C28.87 18.236 28.468 17.162 28.468 15.77H31.528C31.528 16.298 31.636 16.7 31.852 16.976C32.068 17.24 32.38 17.372 32.788 17.372C33.16 17.372 33.448 17.252 33.652 17.012C33.856 16.772 33.958 16.424 33.958 15.968V7.364H37.036ZM44.0943 20.144C43.1103 20.144 42.2223 19.934 41.4303 19.514C40.6503 19.094 40.0323 18.494 39.5763 17.714C39.1323 16.934 38.9103 16.022 38.9103 14.978C38.9103 13.946 39.1383 13.04 39.5942 12.26C40.0503 11.468 40.6743 10.862 41.4663 10.442C42.2583 10.022 43.1463 9.812 44.1303 9.812C45.1143 9.812 46.0023 10.022 46.7943 10.442C47.5863 10.862 48.2103 11.468 48.6663 12.26C49.1223 13.04 49.3503 13.946 49.3503 14.978C49.3503 16.01 49.1163 16.922 48.6483 17.714C48.1923 18.494 47.5623 19.094 46.7583 19.514C45.9663 19.934 45.0783 20.144 44.0943 20.144ZM44.0943 17.48C44.6823 17.48 45.1803 17.264 45.5883 16.832C46.0083 16.4 46.2183 15.782 46.2183 14.978C46.2183 14.174 46.0143 13.556 45.6063 13.124C45.2103 12.692 44.7183 12.476 44.1303 12.476C43.5303 12.476 43.0323 12.692 42.6363 13.124C42.2403 13.544 42.0423 14.162 42.0423 14.978C42.0423 15.782 42.2343 16.4 42.6183 16.832C43.0143 17.264 43.5063 17.48 44.0943 17.48ZM54.0612 11.378C54.3492 10.91 54.7632 10.532 55.3032 10.244C55.8432 9.956 56.4612 9.812 57.1572 9.812C57.9852 9.812 58.7352 10.022 59.4072 10.442C60.0792 10.862 60.6072 11.462 60.9912 12.242C61.3872 13.022 61.5852 13.928 61.5852 14.96C61.5852 15.992 61.3872 16.904 60.9912 17.696C60.6072 18.476 60.0792 19.082 59.4072 19.514C58.7352 19.934 57.9852 20.144 57.1572 20.144C56.4492 20.144 55.8312 20.006 55.3032 19.73C54.7752 19.442 54.3612 19.064 54.0612 18.596V20H50.9832V6.68H54.0612V11.378ZM58.4532 14.96C58.4532 14.192 58.2372 13.592 57.8052 13.16C57.3852 12.716 56.8632 12.494 56.2392 12.494C55.6272 12.494 55.1052 12.716 54.6732 13.16C54.2532 13.604 54.0432 14.21 54.0432 14.978C54.0432 15.746 54.2532 16.352 54.6732 16.796C55.1052 17.24 55.6272 17.462 56.2392 17.462C56.8512 17.462 57.3732 17.24 57.8052 16.796C58.2372 16.34 58.4532 15.728 58.4532 14.96ZM74.144 7.364V20H71.066V14.798H66.278V20H63.2V7.364H66.278V12.314H71.066V7.364H74.144ZM86.284 9.956V20H83.206V18.632C82.894 19.076 82.468 19.436 81.928 19.712C81.4 19.976 80.812 20.108 80.164 20.108C79.396 20.108 78.718 19.94 78.13 19.604C77.542 19.256 77.086 18.758 76.762 18.11C76.438 17.462 76.276 16.7 76.276 15.824V9.956H79.336V15.41C79.336 16.082 79.51 16.604 79.858 16.976C80.206 17.348 80.674 17.534 81.262 17.534C81.862 17.534 82.336 17.348 82.684 16.976C83.032 16.604 83.206 16.082 83.206 15.41V9.956H86.284ZM94.6149 9.848C95.7909 9.848 96.7269 10.232 97.4229 11C98.1309 11.756 98.4849 12.8 98.4849 14.132V20H95.4249V14.546C95.4249 13.874 95.2509 13.352 94.9029 12.98C94.5549 12.608 94.0869 12.422 93.4989 12.422C92.9109 12.422 92.4429 12.608 92.0949 12.98C91.7469 13.352 91.5729 13.874 91.5729 14.546V20H88.4949V9.956H91.5729V11.288C91.8849 10.844 92.3049 10.496 92.8329 10.244C93.3609 9.98 93.9549 9.848 94.6149 9.848ZM106.222 17.39V20H104.656C103.54 20 102.67 19.73 102.046 19.19C101.422 18.638 101.11 17.744 101.11 16.508V12.512H99.8858V9.956H101.11V7.508H104.188V9.956H106.204V12.512H104.188V16.544C104.188 16.844 104.26 17.06 104.404 17.192C104.548 17.324 104.788 17.39 105.124 17.39H106.222Z" fill="white"/>
<path d="M21 14.255C18.1405 15.4112 15.0844 16.0038 12 16C8.817 16 5.78 15.38 3 14.255H21ZM16 7V5C16 4.46957 15.7893 3.96086 15.4142 3.58579C15.0391 3.21071 14.5304 3 14 3H10C9.46957 3 8.96086 3.21071 8.58579 3.58579C8.21071 3.96086 8 4.46957 8 5V7H16ZM12 13H12.01H12ZM5 21H19C19.5304 21 20.0391 20.7893 20.4142 20.4142C20.7893 20.0391 21 19.5304 21 19V9C21 8.46957 20.7893 7.96086 20.4142 7.58579C20.0391 7.21071 19.5304 7 19 7H5C4.46957 7 3.96086 7.21071 3.58579 7.58579C3.21071 7.96086 3 8.46957 3 9V19C3 19.5304 3.21071 20.0391 3.58579 20.4142C3.96086 20.7893 4.46957 21 5 21Z" stroke="white" stroke-width="2" stroke-linecap="round" stroke-linejoin="round"/>
</svg>
